<svg width="32" height="32" viewBox="0 0 32 32" fill="none" xmlns="http://www.w3.org/2000/svg">
<path fill-rule="evenodd" clip-rule="evenodd" d="M14.4754 11.1174C15.1662 10.1864 15.4139 9.20528 14.6326 8.33924C12.8793 5.88594 11.7002 4.36882 10.9606 3.63821C9.55451 2.24923 7.24149 2.43712 6.02372 3.63703C5.36965 4.28151 5.14822 4.50283 4.47662 5.18497C0.735754 8.92785 3.01713 16.8402 9.08185 22.9108C15.1452 28.9802 23.0568 31.2627 26.8055 27.512C27.4252 26.9145 27.9499 26.3895 28.3637 25.9521C29.5571 24.6908 29.7383 22.4798 28.3559 21.0434C27.6471 20.307 26.2004 19.1848 23.6439 17.3561C22.8609 16.6559 21.9325 16.8077 21.0814 17.3661C20.672 17.6347 20.374 17.9064 19.8114 18.4696L18.7897 19.4918C18.6552 19.6264 16.828 18.7114 15.0543 16.9359C13.2796 15.1595 12.3652 13.3322 12.4991 13.1983C12.7753 12.9221 13.1161 12.5812 13.5215 12.1754C13.7 11.9967 13.7853 11.9102 13.8948 11.7952C14.1228 11.5556 14.3116 11.3381 14.4754 11.1174ZM20.6743 21.3774L21.6962 20.355C22.0058 20.045 22.2065 19.8545 22.3697 19.7231C24.6093 21.3313 25.9063 22.3426 26.4361 22.8931C26.7542 23.2236 26.7047 23.8266 26.4282 24.1189C26.0456 24.5233 25.5484 25.0208 24.9383 25.6092C22.5143 28.0343 16.1279 26.1917 10.9668 21.0256C5.8042 15.8579 3.96251 9.47055 6.36826 7.06347C7.03715 6.38413 7.24907 6.17232 7.89381 5.53703C8.13555 5.29884 8.79403 5.24535 9.0881 5.53585C9.65753 6.09834 10.7138 7.45081 12.2676 9.61527C12.1872 9.71513 12.0867 9.82799 11.9644 9.95648C11.8747 10.0508 11.7999 10.1266 11.6365 10.2902C11.2314 10.6957 10.891 11.0363 10.6151 11.3121C8.87762 13.0495 10.3574 16.0064 13.1693 18.8211C15.9793 21.6339 18.9374 23.1153 20.6743 21.3774Z" fill="#0D415C"/>
</svg>
