<svg width="56" height="100" viewBox="0 0 56 100" fill="none" xmlns="http://www.w3.org/2000/svg">
<g clip-path="url(#clip0)">
<path d="M18.6142 52.514C20.0958 52.566 18.0713 50.7709 17.9961 50.6833C17.221 49.7744 16.4753 48.6935 16.1973 47.5185C15.8997 46.2525 16.0174 45.4086 17.2929 44.8048C18.4507 44.2595 18.7091 45.1035 18.1302 43.7531C17.5219 42.3249 14.6732 40.0624 16.5211 38.3291C17.0574 37.8227 18.4834 38.2577 18.7385 37.5695C18.8988 37.1281 16.9266 35.2584 16.6323 34.7585C15.4418 32.7135 15.8637 30.2141 18.7385 30.8017C19.5594 30.9672 20.2332 31.6781 20.799 31.0191C21.162 30.5972 20.799 29.0716 20.799 28.5132C20.7565 27.3999 20.001 22.3459 21.1751 21.9304C23.3991 21.1611 22.6632 26.728 22.673 27.6141C22.673 28.1919 22.2838 33.366 23.4318 33.2232C24.0859 33.1388 23.5986 26.3579 23.5855 25.6925C23.5528 24.1312 23.4776 22.5764 23.4285 21.0183C23.4056 20.2944 23.2192 16.5778 25.296 18.5611C25.8945 19.1356 25.4726 21.1579 25.4824 21.8947C25.5053 23.4657 25.5282 25.04 25.5282 26.6111C25.5282 28.9417 25.5086 31.2853 25.5675 33.6127C25.5936 34.7196 26.0973 36.823 26.5486 34.6741C26.9346 32.8888 26.3949 30.4543 26.3688 28.6269C26.3197 25.264 26.3459 21.8914 26.215 18.5319C26.215 18.1391 25.7768 15.7922 26.215 15.393C27.1275 14.549 27.8765 15.6981 28.0629 16.3992C28.4227 17.7398 28.0923 19.6809 28.1218 21.0994C28.1578 22.8101 28.2035 24.5207 28.2297 26.2346C28.2297 27.3901 27.5756 35.4239 28.5273 35.8167C29.3515 36.1413 29.0474 33.1193 29.0408 32.8694C28.9819 30.6231 28.9656 28.3737 28.9296 26.1275C28.8969 24.1182 28.7465 22.07 28.8315 20.064C28.8806 18.9733 29.6491 17.5353 30.6826 18.9571C31.3858 19.9309 30.7579 23.3132 30.7611 24.511C30.7611 26.7831 30.892 29.0553 30.9181 31.3437C30.9181 31.9929 30.9835 34.6384 31.7456 32.8077C32.3016 31.4638 31.7161 28.6463 31.6834 27.2051C31.6638 26.4358 31.0784 22.8685 31.6834 22.3751C33.7014 20.7196 33.4855 25.2348 33.5019 25.858C33.5378 27.2928 33.2599 29.2014 33.5444 30.6166C33.9369 32.5642 34.8199 31.2172 36.416 31.2236C38.2933 31.2236 39.0782 32.5934 38.5386 34.33C38.2115 35.385 36.0562 37.0242 36.0268 37.9006C35.9973 38.777 37.662 38.2739 38.3423 38.9166C39.2319 39.7541 38.8133 41.0525 38.3914 42.01C38.097 42.6755 36.2786 44.6068 36.6482 45.1392C36.7528 45.2917 38.0022 45.3209 38.2834 45.5157C38.9376 45.9864 39.0455 46.6842 39.0095 47.4406C38.9278 49.2908 37.4462 50.3619 36.4225 51.6928C35.8338 52.4524 36.066 52.7445 35.1764 53.0334C34.5485 53.2346 32.4684 55.0037 31.8273 54.9258C33.3743 53.8838 35.6605 50.4691 36.6514 48.8526C37.541 47.3984 37.4495 46.3921 35.4937 47.09C33.3155 47.8625 31.4022 49.6641 29.6066 51.0696C28.6974 51.7869 28.2984 52.4231 27.1537 52.1375C26.3753 51.9427 25.332 50.7158 24.6975 50.1899C24.063 49.6641 16.2104 43.7986 18.1727 48.0963C18.9086 49.7192 20.7663 50.9397 22.202 51.8356C23.4514 52.6147 26.5683 55.3088 28.0891 54.9907C27.8274 56.0522 27.6606 55.9126 26.8822 55.6204C25.9959 55.2958 25.1717 54.322 24.1742 53.952C23.1767 53.582 22.1301 53.2022 21.1293 52.8549C20.4752 52.6244 20.0925 52.3582 19.3566 52.5627C18.9086 52.6861 18.7451 53.3807 18.2414 53.358L18.6142 52.514ZM17.5219 53.0334H17.4532H17.5219ZM18.1465 32.3857C16.6584 32.3857 19.723 36.0244 20.0206 36.3393C21.2569 37.6377 24.063 40.3448 26.045 40.2962C28.1708 40.241 25.4922 37.4494 24.7171 36.6477C22.9477 34.8169 20.6845 32.9473 18.1367 32.3825L18.1465 32.3857ZM26.4865 47.499C28.0858 47.6321 24.8512 43.87 24.5569 43.5681C23.8177 42.8248 19.3501 38.6245 18.0975 39.6307C15.8277 41.4387 25.0867 47.1711 26.4865 47.499ZM28.6483 40.413C30.9803 40.3773 33.5542 38.0629 35.0325 36.4205C35.7618 35.6122 38.0055 33.366 36.2263 32.8986C34.4994 32.4441 31.3793 35.544 30.3392 36.6607C29.9991 37.0339 27.1995 40.413 28.6483 40.413ZM36.4977 40.0495C33.927 40.5169 31.6736 42.3606 30.0154 44.3082C29.224 45.2333 26.9869 47.6808 29.4791 47.4503C31.4512 47.262 34.0088 44.8243 35.2811 43.3734C35.6081 43.0098 38.1886 39.9975 36.501 40.0365L36.4977 40.0495Z" fill="#0D415C"/>
<path d="M19.2487 59.7136C18.9623 59.5308 18.7155 59.2931 18.5228 59.0144C18.3302 58.7357 18.1956 58.4216 18.1269 58.0906C17.7998 56.5131 17.3125 53.5819 18.6142 52.5043C19.2127 52.0076 20.7237 51.3909 21.3876 51.3649C22.3917 51.0728 25.6394 54.5038 27.448 54.4973C30.0187 54.4973 33.9139 51.0955 36.2164 52.2251C38.5189 53.3547 39.2809 55.6237 38.1788 58.0679C36.792 61.1873 32.4127 62.0637 30.143 64.6864C29.6458 65.2577 28.9394 66.7574 28.2297 66.7541C27.6312 66.7541 27.0326 65.3356 26.5453 64.9234C24.2416 63.016 21.8032 61.275 19.2487 59.7136Z" fill="#690E07"/>
<path d="M34.5224 77.2062L34.578 78.0112L34.5224 77.2062ZM36.4292 77.7321C36.5796 80.3873 36.9034 82.6205 34.1038 83.8702C31.0589 85.227 27.3795 85.1394 24.2398 84.2565C20.7108 83.2632 20.3576 81.9356 20.2791 78.6409C20.2235 76.4207 19.71 76.7128 17.8654 75.3008C16.7927 74.4796 15.576 73.3857 15.0298 72.123C14.6046 71.1492 14.7028 70.2241 14.1533 69.3996C13.8263 68.9257 13.1721 68.7829 12.8843 68.2116C12.5965 67.6403 12.9138 67.095 12.7568 66.5497C12.3839 65.2513 11.8639 64.5371 11.0692 63.3524C10.0193 61.7878 7.35379 57.1363 10.0618 55.8866C12.9497 54.5655 13.6137 60.1518 15.2359 59.8435C15.926 59.7136 15.9161 58.2464 17.1688 58.1783C18.1499 58.1263 19.432 59.7006 20.2268 60.1713C21.5906 60.9795 23.0231 61.4275 24.2921 62.4175C25.3092 63.2128 26.9085 65.8615 28.0729 66.1731C29.2372 66.4847 31.6705 62.2779 33.0997 61.3431C34.3066 60.5543 36.197 59.1293 37.6066 58.7041C38.3555 58.4769 39.0456 58.4055 39.7357 58.834C40.0628 59.0385 40.4781 60.233 40.7169 60.2784C41.9957 60.5186 44.6121 53.1373 46.6464 57.7823C48.0495 60.999 44.2426 63.3199 43.5034 65.8972C43.1469 67.1469 43.595 67.9487 42.8493 69.1692C42.6269 69.5295 41.9237 69.5976 41.7079 69.9936C41.3808 70.6136 41.5967 71.4641 41.3808 72.1522C41.0538 73.126 36.6123 77.5535 36.475 77.4237L36.4292 77.7321ZM34.5813 78.0664L34.5224 77.1997L34.5813 78.0664ZM27.3828 74.4471C26.6894 74.4471 27.4645 67.7247 27.1538 66.5789C26.7123 64.9559 24.3281 62.9693 22.7549 62.3591C21.9405 62.0345 20.9953 62.2682 20.2595 61.8917C19.5792 61.5476 18.8171 60.0382 17.9406 60.0869C15.7886 60.2103 19.0232 62.398 18.1271 63.3329C17.2309 64.2677 13.5483 60.7686 12.9563 60.0447C12.07 58.9573 10.5655 56.2274 10.8762 59.1748C11.1378 61.6937 13.8851 63.2485 14.5687 65.5564C14.8957 66.6568 14.3888 66.9392 14.9677 67.8643C15.3274 68.4356 16.1222 68.4258 16.495 69.1627C16.8221 69.8119 16.4591 70.896 16.8221 71.6783C17.3552 72.8436 18.6536 73.8012 19.7035 74.4698C20.1286 74.7393 21.7868 75.2781 22.0517 75.7682C22.732 77.0666 21.5873 78.9947 21.9929 80.3353C22.4279 81.7863 25.6984 84.2305 27.2487 82.9061C28.2495 82.0589 27.3828 75.8267 27.3828 74.4536V74.4471ZM29.2176 74.4471C29.6427 74.4471 29.4367 79.4005 29.44 80.0172C29.44 82.2472 28.9592 83.1074 31.2813 82.851C37.0015 82.2245 32.7825 78.6312 34.7219 75.8137C35.376 74.8626 37.6654 74.2426 38.5616 73.2786C39.9679 71.7627 39.1634 70.6656 39.9189 69.1854C40.1642 68.7017 40.7561 68.6952 40.9785 68.3317C41.7308 67.1177 41.178 68.3317 41.6326 66.9879C41.8518 66.3387 41.6686 65.7511 41.9924 65.0403C42.4536 64.0048 43.4903 63.0018 44.0529 62.002C44.2622 61.632 45.8909 58.6424 44.8116 58.3698C44.079 58.1815 42.1723 61.5671 41.5411 62.0507C41.1388 62.3753 38.4602 64.1022 38.0318 63.7224C37.4856 63.2388 39.2059 61.3301 38.8592 60.7231C38.1658 59.5059 36.9165 61.4762 36.21 61.8138C34.8331 62.463 33.4791 62.3656 32.1055 63.2777C28.1154 65.9232 29.2176 70.1916 29.2176 74.4536V74.4471Z" fill="#0D415C"/>
</g>
<defs>
<clipPath id="clip0">
<rect width="38.076" height="69.8113" fill="white" transform="translate(8.88428 15.0944)"/>
</clipPath>
</defs>
</svg>
