<svg width="611" height="611" viewBox="0 0 611 611" fill="none" xmlns="http://www.w3.org/2000/svg">
<rect width="611" height="611" rx="25" fill="#BA3BFC"/>
<rect width="6.77778" height="55.9167" transform="matrix(-1 0 0 1 610.001 277.708)" fill="white"/>
<rect width="6.35417" height="33.8889" transform="matrix(-1 0 0 1 592.632 288.722)" fill="white"/>
<rect width="6.77778" height="33.8889" transform="matrix(-1 0 0 1 575.688 288.722)" fill="white"/>
<rect width="6.77778" height="21.1806" transform="matrix(-1 0 0 1 558.32 295.077)" fill="white"/>
<rect width="6.35417" height="33.8889" transform="matrix(-1 0 0 1 540.952 288.722)" fill="white"/>
<rect width="6.77778" height="44.9028" transform="matrix(-1 0 0 1 524.008 283.215)" fill="white"/>
<rect width="6.77778" height="33.8889" transform="matrix(-1 0 0 1 506.639 288.722)" fill="white"/>
<rect width="6.77778" height="33.8889" transform="matrix(-1 0 0 1 489.271 288.722)" fill="white"/>
<rect width="6.35417" height="71.1667" transform="matrix(-1 0 0 1 471.903 270.083)" fill="white"/>
<rect width="6.77778" height="33.8889" transform="matrix(-1 0 0 1 454.958 288.722)" fill="white"/>
<rect width="6.77778" height="21.1806" transform="matrix(-1 0 0 1 437.591 295.077)" fill="white"/>
<rect width="6.35417" height="15.25" transform="matrix(-1 0 0 1 420.222 298.042)" fill="white"/>
<rect width="6.77778" height="81.3334" transform="matrix(-1 0 0 1 403.278 265)" fill="white"/>
<rect width="6.77778" height="33.8889" transform="matrix(-1 0 0 1 385.91 288.722)" fill="white"/>
<rect width="6.35417" height="18.6389" transform="matrix(-1 0 0 1 368.542 296.347)" fill="white"/>
<rect width="6.77778" height="24.5695" transform="matrix(-1 0 0 1 351.598 293.382)" fill="white"/>
<rect width="6.77778" height="27.9584" transform="matrix(-1 0 0 1 334.229 291.688)" fill="white"/>
<rect width="6.35417" height="33.8889" transform="matrix(-1 0 0 1 316.861 288.722)" fill="white"/>
<rect width="6.35417" height="24.5695" transform="matrix(-1 0 0 1 299.493 293.382)" fill="white"/>
<rect width="6.77778" height="33.8889" transform="matrix(-1 0 0 1 282.549 288.722)" fill="white"/>
<rect width="6.77778" height="27.9584" transform="matrix(-1 0 0 1 265.181 291.688)" fill="white"/>
<rect width="6.35417" height="27.9584" transform="matrix(-1 0 0 1 247.813 291.688)" fill="white"/>
<rect width="6.77778" height="33.8889" transform="matrix(-1 0 0 1 230.868 288.722)" fill="white"/>
<rect width="6.77778" height="27.1111" transform="matrix(-1 0 0 1 213.5 292.111)" fill="white"/>
<rect width="6.35417" height="21.1806" transform="matrix(-1 0 0 1 196.132 295.077)" fill="white"/>
<rect width="6.77778" height="18.6389" transform="matrix(-1 0 0 1 179.188 296.347)" fill="white"/>
<rect width="6.77778" height="49.1389" transform="matrix(-1 0 0 1 161.82 281.097)" fill="white"/>
<rect width="6.35417" height="33.8889" transform="matrix(-1 0 0 1 144.451 288.722)" fill="white"/>
<rect width="6.77778" height="21.1806" transform="matrix(-1 0 0 1 127.507 295.077)" fill="white"/>
<rect width="6.77778" height="33.8889" transform="matrix(-1 0 0 1 110.139 288.722)" fill="white"/>
<rect width="6.77778" height="33.8889" transform="matrix(-1 0 0 1 92.7705 288.722)" fill="white"/>
<rect width="6.35417" height="33.8889" transform="matrix(-1 0 0 1 75.4028 288.722)" fill="white"/>
<rect width="6.77778" height="33.8889" transform="matrix(-1 0 0 1 58.4585 288.722)" fill="white"/>
<rect width="6.77778" height="33.8889" transform="matrix(-1 0 0 1 41.0903 288.722)" fill="white"/>
<rect width="6.35417" height="58.4584" transform="matrix(-1 0 0 1 23.7227 276.438)" fill="white"/>
<rect width="6.77778" height="33.8889" transform="matrix(-1 0 0 1 6.77783 288.722)" fill="white"/>
</svg>
