<svg width="195" height="76" viewBox="0 0 195 76" fill="none" xmlns="http://www.w3.org/2000/svg">
<g clip-path="url(#clip0)">
<path d="M13.3897 4.26848L13.7138 3.56039H12.935H10.2456V0.5H19.6971L31.0829 26.2417L31.2146 26.5395H31.5402H33.8753V29.6882H23.535V26.5395H26.6674H27.5187L27.1041 25.796C26.8957 25.4223 26.7268 25.0447 26.5619 24.6613C26.5352 24.5991 26.5083 24.5363 26.4814 24.4733C26.3501 24.166 26.2157 23.8515 26.0671 23.5521C25.8674 22.9625 25.6168 22.408 25.3999 21.9279C25.3198 21.7506 25.2443 21.5834 25.1776 21.4284L25.0475 21.126H24.7183H9.65697H9.32775L9.19767 21.4284C9.139 21.5648 9.08148 21.7024 9.02317 21.842C8.80771 22.3575 8.5814 22.899 8.24572 23.501L8.23487 23.5204L8.22579 23.5408L7.16264 25.9241L6.84872 26.6278H7.61926H10.6631V29.7764H0.5V26.6278H2.83507H3.15611L3.28972 26.3358L13.3897 4.26848ZM22.8578 17.9774H23.5973L23.3218 17.2911C23.173 16.9205 23.0086 16.5492 22.8457 16.1811C22.8102 16.1008 22.7747 16.0206 22.7395 15.9407C22.5409 15.49 22.347 15.0389 22.1757 14.5696C21.9225 13.8757 21.622 13.1751 21.3147 12.4585C21.1857 12.1577 21.0554 11.8541 20.927 11.5469C20.8021 11.2484 20.6759 10.9393 20.5467 10.623C20.2258 9.83704 19.8866 9.0064 19.5048 8.18173C18.9741 6.94799 18.4445 5.71685 17.8269 4.2225L17.3953 3.17819L16.9127 4.19993C16.5903 4.8825 16.3129 5.50856 16.0501 6.10165C15.7163 6.85478 15.4062 7.55471 15.0574 8.2496L15.0508 8.26276L15.045 8.27629C14.8159 8.80895 14.5817 9.33621 14.3538 9.84952C14.0638 10.5026 13.7838 11.1332 13.5369 11.7235C13.0977 12.7737 12.6594 13.7341 12.2224 14.605C11.9363 15.175 11.6752 15.8073 11.4374 16.3832C11.3047 16.7045 11.1793 17.0082 11.0609 17.2737L10.747 17.9774H11.5175H22.8578Z" fill="#BA3BFC" stroke="#BA3BFC"/>
<path d="M50.6435 12.4027L50.6153 12.0748L50.3029 11.971L50.2995 11.9699C50.034 11.8817 49.7532 11.7885 49.3802 11.6956C49.0333 11.6091 48.5655 11.5123 48.1582 11.5047C47.6883 11.4159 47.3033 11.4159 46.8826 11.4159L46.8673 11.4159H46.8652H46.8632H46.8611H46.859H46.8569H46.8549H46.8528H46.8507H46.8486H46.8465H46.8445H46.8424H46.8403H46.8382H46.8362H46.8341H46.832H46.8299H46.8279H46.8258H46.8237H46.8216H46.8196H46.8175H46.8154H46.8133H46.8113H46.8092H46.8071H46.805H46.803H46.8009H46.7988H46.7967H46.7947H46.7926H46.7905H46.7884H46.7864H46.7843H46.7822H46.7801H46.7781H46.776H46.7739H46.7719H46.7698H46.7677H46.7656H46.7636H46.7615H46.7594H46.7574H46.7553H46.7532H46.7511H46.7491H46.747H46.7449H46.7429H46.7408H46.7387H46.7367H46.7346H46.7325H46.7305H46.7284H46.7263H46.7243H46.7222H46.7201H46.7181H46.716H46.7139H46.7119H46.7098H46.7077H46.7057H46.7036H46.7015H46.6995H46.6974H46.6953H46.6933H46.6912H46.6892H46.6871H46.685H46.683H46.6809H46.6788H46.6768H46.6747H46.6727H46.6706H46.6686H46.6665H46.6644H46.6624H46.6603H46.6583H46.6562H46.6542H46.6521H46.65H46.648H46.6459H46.6439H46.6418H46.6398H46.6377H46.6357H46.6336H46.6316H46.6295H46.6275H46.6254H46.6234H46.6213H46.6193H46.6172H46.6152H46.6131H46.6111H46.609H46.607H46.605H46.6029H46.6009H46.5988H46.5968H46.5947H46.5927H46.5907H46.5886H46.5866H46.5845H46.5825H46.5805H46.5784H46.5764H46.5743H46.5723H46.5703H46.5682H46.5662H46.5642H46.5621H46.5601H46.5581H46.556H46.554H46.552H46.5499H46.5479H46.5459H46.5439H46.5418H46.5398H46.5378H46.5358H46.5337H46.5317H46.5297H46.5277H46.5256H46.5236H46.5216H46.5196H46.5176H46.5155H46.5135H46.5115H46.5095H46.5075H46.5055H46.5034H46.5014H46.4994H46.4974H46.4954H46.4934H46.4914H46.4894H46.4873H46.4853H46.4833H46.4813H46.4793H46.4773H46.4753H46.4733H46.4713H46.4693H46.4673H46.4653H46.4633H46.4613H46.4593H46.4573H46.4553H46.4533H46.4513H46.4493H46.4473H46.4453H46.4433H46.4413H46.4394H46.4374H46.4354H46.4334H46.4314H46.4294H46.4274H46.4254H46.4235H46.4215H46.4195H46.4175H46.4155H46.4136H46.4116H46.4096H46.4076H46.4056H46.4037H46.4017H46.3997H46.3978H46.3958H46.3938H46.3918H46.3899H46.3879H46.3859H46.384H46.382H46.38H46.3781H46.3761H46.3742H46.3722H46.3702H46.3683H46.3663H46.3644H46.3624H46.3605H46.3585H46.3566H46.3546H46.3527H46.3507H46.3488H46.3468H46.3449H46.3429H46.341H46.339H46.3371H46.3351H46.3332H46.3313H46.3293H46.3274H46.3255H46.3235H46.3216H46.3197H46.3177H46.3158H46.3139H46.3119H46.31H46.3081H46.3062H46.3042H46.3023H46.3004H46.2985H46.2965H46.2946H46.2927H46.2908H46.2889H46.287H46.2851H46.2831H46.2812H46.2793H46.2774H46.2755H46.2736H46.2717H46.2698H46.2679H46.266H46.2641H46.2622H46.2603H46.2584H46.2565H46.2546H46.2527H46.2508H46.2489H46.247H46.2452H46.2433H46.2414H46.2395H46.2376H46.2357H46.2339H46.232H46.2301H46.2282H46.2263H46.2245H46.2226H46.2207H46.2189H46.217H46.2151H46.2133H46.2114H46.2095H46.2077H46.2058H46.2039H46.2021H46.2002H46.1984H46.1965H46.1947H46.1928H46.191H46.1891H46.1873H46.1854H46.1836H46.1817H46.1799H46.178H46.1762H46.1744H46.1725H46.1707H46.1688H46.167H46.1652H46.1634H46.1615H46.1597H46.1579H46.156H46.1542H46.1524H46.1506H46.1488H46.1469H46.1451H46.1433H46.1415H46.1397H46.1379H46.1361H46.1343H46.1325H46.1306H46.1288H46.127H46.1252H46.1234H46.1216H46.1199H46.1181H46.1163H46.1145H46.1127H46.1109H46.1091H46.1073H46.1055H46.1038H46.102H46.1002H46.0984H46.0966H46.0949H46.0931H46.0913H46.0896H46.0878H46.086H46.0843H46.0825H46.0807H46.079H46.0772H46.0755H46.0737H46.0719H46.0702H46.0684H46.0667H46.0649H46.0632H46.0615H46.0597H46.058H46.0562H46.0545H46.0528H46.051H46.0493H46.0476H46.0458H46.0441H46.0424H46.0406H46.0389H46.0372H46.0355H46.0338H46.032H46.0303H46.0286H46.0269H46.0252H46.0235H46.0218H46.0201H46.0184H46.0167H46.015H46.0133H46.0116H46.0099H46.0082H46.0065H46.0048H46.0031H46.0014H45.9998H45.9981H45.9964H45.9947H45.993H45.9914H45.9897H45.988H45.9864H45.9847H45.983H45.9814H45.9797H45.978H45.9764H45.9747H45.9731H45.9714H45.9698H45.9681H45.9665H45.9648H45.9632H45.9615H45.9599H45.9583H45.9566H45.955H45.9534H45.9517H45.9501H45.9485H45.9468H45.9452H45.9436H45.942H45.9404H45.9388H45.9371H45.9355H45.9339H45.9323H45.9307H45.9291H45.9275H45.9259H45.9243H45.9227H45.9211H45.9195H45.9179H45.9163H45.9148H45.9132H45.9116H45.91H45.9084H45.9069H45.9053H45.9037H45.9021H45.9006H45.899H45.8974H45.8959H45.8943H45.8928C45.8766 11.4159 45.8604 11.4159 45.8442 11.4159C45.1896 11.4158 44.5161 11.4157 43.9177 11.604C43.2204 11.7126 42.7161 12.0142 42.2893 12.2694L42.2696 12.2812C41.7841 12.5714 41.3611 12.9724 41.1254 13.4169C40.7876 13.8872 40.6972 14.4419 40.6972 15.0054C40.6972 15.5637 40.9166 16.1378 41.2872 16.5071C41.5905 16.8092 41.9808 17.0979 42.4467 17.3764L42.4811 17.397L42.5182 17.4118C42.9789 17.5954 43.5473 17.7855 44.1275 17.8819C44.6648 17.9711 45.2896 18.06 45.9069 18.1479L45.9109 18.1484L45.9235 18.1502L45.9362 18.1514C46.7418 18.2244 47.6092 18.3589 48.5589 18.5062C48.7347 18.5335 48.9134 18.5612 49.0951 18.589C50.187 18.7564 51.112 19.0908 51.9601 19.5133C52.7666 19.9151 53.5086 20.5675 54.0924 21.3154C54.6131 21.9822 54.8725 22.9974 54.8725 24.3619C54.8725 25.3378 54.628 26.2085 54.1596 26.9085C53.6512 27.6683 53.0746 28.3186 52.3494 28.8002C51.6021 29.2966 50.6833 29.7139 49.5903 29.9652C48.4646 30.2241 47.3515 30.3939 46.0699 30.3939C44.3286 30.3939 42.788 30.22 41.4344 29.7986C40.1266 29.3914 38.7449 28.8316 37.3605 28.0477L37.4368 23.1848H40.282L40.4322 25.8029L40.448 26.0781L40.6892 26.2117C41.548 26.687 42.4885 26.9651 43.4029 27.1473C44.3205 27.3301 45.2391 27.4217 46.1585 27.4217H46.172C46.6084 27.4217 47.1742 27.4218 47.7466 27.3267L47.7622 27.3241C48.284 27.2375 48.8482 27.1438 49.417 26.9549C50.0417 26.7474 50.4705 26.4269 50.873 25.9314C51.3285 25.4643 51.5225 24.8123 51.6149 24.1681L51.6199 24.1328V24.0971C51.6199 23.5333 51.4902 23.009 51.1771 22.5553C50.8654 22.1037 50.4013 21.7642 49.8055 21.5169C48.6841 21.0513 47.3956 20.7796 45.7841 20.6005L42.6278 20.0764C41.6183 19.8234 40.7745 19.4876 39.9238 19.0644C39.1873 18.655 38.5525 18.0929 38.1655 17.476L38.1542 17.458L38.1414 17.441C37.7089 16.8665 37.5331 16.0308 37.5331 14.9171C37.5331 13.8399 37.7836 12.8851 38.2461 12.194L38.2527 12.1841L38.2588 12.1739C38.748 11.3616 39.3977 10.7142 40.2134 10.2266C41.0681 9.71565 41.9824 9.30593 42.9624 9.1432L42.982 9.13994L43.0013 9.13513C44.0176 8.88199 44.9506 8.79688 45.8928 8.79688C47.2659 8.79688 48.6473 8.96749 50.0423 9.22763C51.4007 9.54665 52.5917 9.93433 53.6272 10.452L53.5517 15.035H50.87L50.6435 12.4027Z" fill="#BA3BFC" stroke="#BA3BFC"/>
<path d="M66.0735 18.2014L69.8709 14.77L72.4272 12.75L73.4968 11.9048L72.1344 11.858L70.0479 11.7863V9.32694H79.8567V11.8577H77.6988H77.5216L77.384 11.9693L70.7393 17.3537L70.3681 17.6544L70.6516 18.0389L77.0306 26.6893L77.1804 26.8926H77.433H80.4768V29.6882H73.769V27.8049V27.6435L73.6747 27.5126L68.2703 20.0097L67.9573 19.5752L67.5452 19.9173L65.4189 21.6827L65.2383 21.8326V22.0674V26.3926V26.8926H65.7383H68.0734V29.6882H58.7076V26.8926H61.5743H62.0743V26.3926V3.79559V3.29559H61.5743H58.7962V0.5H65.2383V17.8304V18.9561L66.0735 18.2014Z" fill="#BA3BFC" stroke="#BA3BFC"/>
<path d="M14.5298 67.7325H0.588593V64.4955H3.72103H4.22103V63.9955V42.0164V41.5164H3.72103H0.677189V38.4561H14.4412C16.9706 38.4561 19.2008 38.8045 20.9781 39.5634L20.9781 39.5635L20.9857 39.5666C22.8688 40.3341 24.3201 41.3546 25.6057 42.6355C26.868 43.893 27.7182 45.4092 28.3196 47.2064C28.92 49.0012 29.1797 50.8002 29.1797 52.8736C29.1797 54.9469 28.92 56.7459 28.3196 58.5407C27.716 60.3448 26.8595 61.9599 25.6716 63.3125C24.4839 64.6648 22.9529 65.7687 21.1591 66.5352C19.277 67.3018 17.1282 67.7325 14.5298 67.7325ZM19.5247 63.478L19.5368 63.4724L19.5486 63.4661C20.9178 62.7386 22.0418 61.9046 22.9818 60.6898C23.9107 59.5769 24.5597 58.2828 24.9315 56.9016C25.3914 55.5205 25.5727 54.0584 25.5727 52.6971C25.5727 51.3275 25.3892 49.9489 24.9267 48.5663L24.9268 48.5662L24.9232 48.5562C24.4627 47.2716 23.8149 46.0711 22.8869 44.9616L22.88 44.9534L22.8728 44.9454C21.9334 43.9159 20.7234 43.0855 19.3476 42.4458C17.9315 41.7874 16.2584 41.5164 14.4412 41.5164H8.32803H7.82803V42.0164V63.9955V64.4955H8.32803H14.4412C16.452 64.4955 18.1204 64.1309 19.5247 63.478Z" fill="#BA3BFC" stroke="#BA3BFC"/>
<path d="M37.3336 59.1963C37.4291 60.0524 37.7131 60.9078 38.0987 61.5843C38.4988 62.3754 39.0898 62.9544 39.7207 63.4932C40.404 64.0767 41.1774 64.4579 42.11 64.7374C42.954 65.0169 43.9788 65.2019 45.0068 65.2019C45.5811 65.2019 46.2342 65.1078 46.7665 65.0195C47.3084 64.9418 47.7941 64.7996 48.2782 64.6579C48.385 64.6266 48.4917 64.5954 48.599 64.5649L48.6094 64.5619L48.6197 64.5585C49.185 64.3707 49.7432 64.0926 50.2634 63.8335L50.2797 63.8254C50.7063 63.6129 51.0325 63.3503 51.3101 63.0922L53.4225 64.9995C53.0032 65.4236 52.5236 65.7955 51.941 66.1181L51.9297 66.1243L51.9188 66.1311C51.2208 66.5657 50.4631 66.9824 49.722 67.2285C48.9345 67.49 48.0687 67.7485 47.296 67.9198C46.4382 68.0905 45.6755 68.174 44.9182 68.174C43.1994 68.174 41.7532 67.9177 40.3976 67.4112C39.0433 66.9052 37.8645 66.1484 36.9431 65.2303C36.0134 64.304 35.2583 63.2158 34.7546 61.8776C34.2459 60.5261 33.9893 59.0857 33.9893 57.4637C33.9893 55.9296 34.2461 54.4934 34.7507 53.2366C35.259 51.9705 36.0202 50.7932 36.9431 49.8737C37.8647 48.9554 39.0447 48.1976 40.3141 47.691C41.6901 47.1774 43.1342 46.8418 44.6524 46.8418C46.2844 46.8418 47.8188 47.0986 49.173 47.6046C50.5152 48.1061 51.6013 48.8553 52.5239 49.858C53.4376 50.8512 54.1117 52.102 54.5365 53.6259C54.9276 55.0287 55.0342 56.6713 54.9075 58.6409H37.8305H37.2717L37.3336 59.1963ZM51.2971 56.1101H51.8498L51.7946 55.5602C51.6095 53.716 50.9535 52.1552 49.6614 51.16C48.3947 50.0963 46.7643 49.6374 44.8296 49.6374C43.9952 49.6374 43.1417 49.7297 42.2799 50.0159C41.4241 50.3002 40.7596 50.68 40.1099 51.1423C39.422 51.6319 38.8486 52.3048 38.3815 53.0494C37.9145 53.7939 37.5344 54.641 37.3425 55.5012L37.2067 56.1101H37.8305H51.2971Z" fill="#BA3BFC" stroke="#BA3BFC"/>
<path d="M72.9698 50.3587L72.9416 50.0308L72.6292 49.9271L72.6257 49.9259C72.3603 49.8378 72.0795 49.7445 71.7065 49.6516C71.3595 49.5652 70.8917 49.4683 70.4844 49.4607C70.0145 49.372 69.6295 49.372 69.2089 49.372L69.1935 49.372H69.1915H69.1894H69.1873H69.1852H69.1832H69.1811H69.179H69.1769H69.1749H69.1728H69.1707H69.1686H69.1666H69.1645H69.1624H69.1603H69.1582H69.1562H69.1541H69.152H69.1499H69.1479H69.1458H69.1437H69.1416H69.1396H69.1375H69.1354H69.1333H69.1313H69.1292H69.1271H69.125H69.123H69.1209H69.1188H69.1167H69.1147H69.1126H69.1105H69.1085H69.1064H69.1043H69.1022H69.1002H69.0981H69.096H69.0939H69.0919H69.0898H69.0877H69.0857H69.0836H69.0815H69.0794H69.0774H69.0753H69.0732H69.0712H69.0691H69.067H69.065H69.0629H69.0608H69.0588H69.0567H69.0546H69.0526H69.0505H69.0484H69.0464H69.0443H69.0422H69.0402H69.0381H69.036H69.034H69.0319H69.0298H69.0278H69.0257H69.0236H69.0216H69.0195H69.0174H69.0154H69.0133H69.0113H69.0092H69.0071H69.0051H69.003H69.001H68.9989H68.9968H68.9948H68.9927H68.9907H68.9886H68.9866H68.9845H68.9824H68.9804H68.9783H68.9763H68.9742H68.9722H68.9701H68.9681H68.966H68.964H68.9619H68.9599H68.9578H68.9558H68.9537H68.9517H68.9496H68.9476H68.9455H68.9435H68.9414H68.9394H68.9373H68.9353H68.9332H68.9312H68.9291H68.9271H68.9251H68.923H68.921H68.9189H68.9169H68.9148H68.9128H68.9108H68.9087H68.9067H68.9046H68.9026H68.9006H68.8985H68.8965H68.8945H68.8924H68.8904H68.8884H68.8863H68.8843H68.8823H68.8802H68.8782H68.8762H68.8742H68.8721H68.8701H68.8681H68.866H68.864H68.862H68.86H68.8579H68.8559H68.8539H68.8519H68.8498H68.8478H68.8458H68.8438H68.8418H68.8398H68.8377H68.8357H68.8337H68.8317H68.8297H68.8277H68.8256H68.8236H68.8216H68.8196H68.8176H68.8156H68.8136H68.8116H68.8096H68.8076H68.8055H68.8035H68.8015H68.7995H68.7975H68.7955H68.7935H68.7915H68.7895H68.7875H68.7855H68.7835H68.7815H68.7795H68.7775H68.7755H68.7736H68.7716H68.7696H68.7676H68.7656H68.7636H68.7616H68.7596H68.7576H68.7556H68.7537H68.7517H68.7497H68.7477H68.7457H68.7437H68.7418H68.7398H68.7378H68.7358H68.7339H68.7319H68.7299H68.7279H68.726H68.724H68.722H68.72H68.7181H68.7161H68.7141H68.7122H68.7102H68.7082H68.7063H68.7043H68.7024H68.7004H68.6984H68.6965H68.6945H68.6926H68.6906H68.6886H68.6867H68.6847H68.6828H68.6808H68.6789H68.6769H68.675H68.673H68.6711H68.6692H68.6672H68.6653H68.6633H68.6614H68.6594H68.6575H68.6556H68.6536H68.6517H68.6498H68.6478H68.6459H68.644H68.642H68.6401H68.6382H68.6362H68.6343H68.6324H68.6305H68.6285H68.6266H68.6247H68.6228H68.6209H68.6189H68.617H68.6151H68.6132H68.6113H68.6094H68.6075H68.6056H68.6037H68.6017H68.5998H68.5979H68.596H68.5941H68.5922H68.5903H68.5884H68.5865H68.5846H68.5827H68.5808H68.5789H68.5771H68.5752H68.5733H68.5714H68.5695H68.5676H68.5657H68.5639H68.562H68.5601H68.5582H68.5563H68.5545H68.5526H68.5507H68.5488H68.547H68.5451H68.5432H68.5414H68.5395H68.5376H68.5358H68.5339H68.532H68.5302H68.5283H68.5265H68.5246H68.5227H68.5209H68.519H68.5172H68.5153H68.5135H68.5116H68.5098H68.508H68.5061H68.5043H68.5024H68.5006H68.4988H68.4969H68.4951H68.4932H68.4914H68.4896H68.4878H68.4859H68.4841H68.4823H68.4805H68.4786H68.4768H68.475H68.4732H68.4714H68.4695H68.4677H68.4659H68.4641H68.4623H68.4605H68.4587H68.4569H68.4551H68.4533H68.4515H68.4497H68.4479H68.4461H68.4443H68.4425H68.4407H68.4389H68.4371H68.4353H68.4336H68.4318H68.43H68.4282H68.4264H68.4247H68.4229H68.4211H68.4193H68.4176H68.4158H68.414H68.4123H68.4105H68.4087H68.407H68.4052H68.4034H68.4017H68.3999H68.3982H68.3964H68.3947H68.3929H68.3912H68.3894H68.3877H68.3859H68.3842H68.3825H68.3807H68.379H68.3773H68.3755H68.3738H68.3721H68.3703H68.3686H68.3669H68.3652H68.3634H68.3617H68.36H68.3583H68.3566H68.3549H68.3531H68.3514H68.3497H68.348H68.3463H68.3446H68.3429H68.3412H68.3395H68.3378H68.3361H68.3344H68.3327H68.3311H68.3294H68.3277H68.326H68.3243H68.3226H68.321H68.3193H68.3176H68.3159H68.3143H68.3126H68.3109H68.3093H68.3076H68.3059H68.3043H68.3026H68.301H68.2993H68.2977H68.296H68.2944H68.2927H68.2911H68.2894H68.2878H68.2861H68.2845H68.2829H68.2812H68.2796H68.278H68.2763H68.2747H68.2731H68.2715H68.2698H68.2682H68.2666H68.265H68.2634H68.2618H68.2602H68.2585H68.2569H68.2553H68.2537H68.2521H68.2505H68.2489H68.2473H68.2458H68.2442H68.2426H68.241H68.2394H68.2378H68.2362H68.2347H68.2331H68.2315H68.2299H68.2284H68.2268H68.2252H68.2237H68.2221H68.2205H68.219C68.2028 49.372 68.1866 49.372 68.1705 49.372C67.5159 49.3719 66.8424 49.3717 66.244 49.5601C65.5466 49.6687 65.0423 49.9702 64.6155 50.2255C64.6089 50.2294 64.6023 50.2333 64.5958 50.2372C64.1103 50.5275 63.6873 50.9284 63.4516 51.373C63.1138 51.8432 63.0234 52.398 63.0234 52.9614C63.0234 53.5198 63.2428 54.0938 63.6135 54.4631C63.9167 54.7652 64.307 55.054 64.773 55.3325L64.8073 55.353L64.8444 55.3678C65.3052 55.5514 65.8735 55.7416 66.4538 55.8379C66.991 55.9271 67.6157 56.0161 68.2329 56.1039L68.2371 56.1045L68.2498 56.1063L68.2625 56.1075C69.068 56.1804 69.9355 56.3149 70.8851 56.4622C71.061 56.4895 71.2397 56.5172 71.4213 56.5451C72.5132 56.7124 73.4382 57.0468 74.2864 57.4693C75.0929 57.8711 75.8348 58.5235 76.4187 59.2714C76.9393 59.9383 77.1988 60.9534 77.1988 62.318C77.1988 63.2939 76.9543 64.1645 76.4859 64.8645C75.9774 65.6244 75.4008 66.2746 74.6756 66.7563C73.9284 67.2526 73.0096 67.67 71.9166 67.9213C70.7908 68.1801 69.6778 68.3499 68.3962 68.3499C66.6548 68.3499 65.1142 68.1761 63.7606 67.7546C62.4529 67.3475 61.0711 66.7877 59.6867 66.0037L59.763 61.1408H62.4311L62.5812 63.7589L62.597 64.0342L62.8383 64.1677C63.697 64.643 64.6376 64.9211 65.552 65.1033C66.4695 65.2862 67.3882 65.3778 68.3076 65.3778H68.321C68.7574 65.3778 69.3232 65.3778 69.8956 65.2828L69.9113 65.2802C70.4331 65.1935 70.9972 65.0999 71.566 64.9109C72.1908 64.7035 72.6195 64.383 73.022 63.8874C73.4776 63.4203 73.6715 62.7683 73.7639 62.1241L73.769 62.0888V62.0532C73.769 61.4893 73.6392 60.9651 73.3261 60.5113C73.0145 60.0597 72.5504 59.7203 71.9545 59.4729C70.8331 59.0074 69.5446 58.7356 67.9332 58.5565L64.7769 58.0324C63.7674 57.7794 62.9236 57.4436 62.0729 57.0205C61.3363 56.6111 60.7015 56.049 60.3145 55.4321L60.3032 55.414L60.2904 55.397C59.858 54.8226 59.6822 53.9868 59.6822 52.8731C59.6822 51.7959 59.9326 50.8412 60.3951 50.15L60.4017 50.1401L60.4079 50.1299C60.897 49.3177 61.5468 48.6703 62.3624 48.1827C63.2172 47.6717 64.1314 47.262 65.1114 47.0993L65.1311 47.096L65.1504 47.0912C66.1667 46.838 67.0997 46.7529 68.0418 46.7529C69.415 46.7529 70.7963 46.9235 72.1914 47.1837C73.5541 47.5037 74.7484 47.8929 75.7862 48.4131L75.8615 52.991H73.1962L72.9698 50.3587Z" fill="#BA3BFC" stroke="#BA3BFC"/>
<path d="M84.2549 49.9897H81.4768V47.2824H88.0075V64.348V64.848H88.5075H91.197V67.6436H81.3882V64.848H84.2549H84.7549V64.348V50.4897V49.9897H84.2549ZM88.0109 42.1608L87.9935 42.1753L87.9774 42.1913C87.5635 42.6036 87.0844 42.7516 86.4698 42.7516C85.8958 42.7516 85.3855 42.5401 84.9287 42.1608C84.5474 41.8442 84.3119 41.3032 84.3119 40.5153C84.3119 39.7463 84.5359 39.2841 84.9287 38.958C85.3855 38.5787 85.8958 38.3672 86.4698 38.3672C87.0437 38.3672 87.554 38.5787 88.0109 38.958C88.3922 39.2746 88.6277 39.8156 88.6277 40.6035C88.6277 41.2939 88.3977 41.8397 88.0109 42.1608Z" fill="#BA3BFC" stroke="#BA3BFC"/>
<path d="M114.454 45.4507L116.673 47.2067L114.528 49.7249L114.243 50.0605L114.54 50.3861C115.399 51.3279 116.064 52.3322 116.389 53.2217C116.724 54.1413 116.978 55.3192 116.978 56.6693C116.978 58.4395 116.557 60.0278 115.719 61.4465C114.9 62.8343 113.581 63.9129 111.727 64.5848L110.372 65.0754L111.739 65.5294C112.764 65.8699 113.599 66.2892 114.255 66.7795C114.93 67.2833 115.423 67.7774 115.832 68.3474C116.111 68.7372 116.313 69.1261 116.465 69.5461L112.694 69.8297C112.324 69.2734 111.874 68.8507 111.301 68.4431C110.611 67.9522 109.837 67.6687 108.939 67.4005C107.992 67.1175 107.055 67.0265 106.05 67.0265C104.423 67.0265 102.883 66.7714 101.516 66.347C100.128 65.8276 98.9711 65.241 98.0744 64.3476L98.066 64.3392L98.0572 64.3312C97.1414 63.5018 96.3866 62.4183 95.882 61.1613C95.378 59.9059 95.1206 58.4702 95.1206 56.8458C95.1206 55.1553 95.4583 53.7246 96.0506 52.3742C96.6397 51.1184 97.4763 50.0386 98.5572 49.2102L98.565 49.2042L98.5725 49.198C99.5888 48.3542 100.772 47.6811 102.123 47.2605L102.123 47.2606L102.132 47.2576C103.418 46.8305 104.782 46.577 106.138 46.577C106.586 46.577 107.077 46.578 107.562 46.6585L108.36 46.7909L109.157 46.9233C109.64 47.0035 110.135 47.1664 110.56 47.3359L110.574 47.3413L110.588 47.3459C110.942 47.4636 111.188 47.6173 111.504 47.8139C111.6 47.8741 111.703 47.9383 111.818 48.0067L112.188 48.2285L112.462 47.8936L114.454 45.4507ZM108.893 50.1142L108.872 50.106L108.851 50.0997C107.934 49.8258 106.998 49.6374 105.961 49.6374C105.01 49.6374 104.073 49.8267 103.16 50.0997C102.194 50.3884 101.431 50.8682 100.7 51.414C99.9129 52.0023 99.3366 52.7776 98.8693 53.7087L98.8392 53.7687L98.826 53.8345C98.7953 53.9877 98.7608 54.1474 98.7249 54.3135C98.5631 55.0629 98.3732 55.9418 98.3732 56.9341C98.3732 58.1572 98.6561 59.1945 99.033 60.0421C99.4143 60.9878 99.9894 61.7603 100.761 62.3447C101.444 63.0166 102.308 63.4876 103.248 63.7686C104.165 64.0424 105.101 64.2309 106.138 64.2309C107.172 64.2309 108.21 64.0438 109.158 63.6657C110.096 63.2919 110.865 62.8163 111.541 62.1431C112.194 61.4928 112.766 60.7373 113.151 59.8742C113.539 59.0033 113.726 57.9603 113.726 56.9341C113.726 55.8261 113.541 54.78 113.062 53.8156C112.681 52.8747 112.107 52.1057 111.338 51.5234C110.642 50.8412 109.765 50.4621 108.893 50.1142Z" fill="#BA3BFC" stroke="#BA3BFC"/>
<path d="M124.566 50.078H121.699V47.2824H128.008L128.232 49.7407L128.339 50.9161L129.109 50.0214C130.145 48.817 131.059 48.0854 132.023 47.6855L132.03 47.6825L132.037 47.6792C132.937 47.2715 134.106 47.0176 135.463 47.0176C138.559 47.0176 140.793 47.8709 142.264 49.4956C143.668 51.1442 144.443 53.4857 144.443 56.6686V64.4363V64.9363H144.943H147.898V67.7319H138.267V64.9363H140.691H141.191V64.4363V56.7568C141.191 54.6104 140.837 52.8717 139.925 51.7612C138.99 50.6225 137.39 50.078 135.198 50.078C133.228 50.078 131.676 50.6449 130.415 51.9009C129.157 53.1542 128.496 54.7883 128.496 56.9334V64.348H128.819V64.848H128.996H129.496H131.685V67.6436H121.611V64.848H124.566H125.066V64.348V50.578V50.078H124.566Z" fill="#BA3BFC" stroke="#BA3BFC"/>
<path d="M154.369 59.1963C154.465 60.0524 154.749 60.9078 155.134 61.5843C155.534 62.3754 156.125 62.9544 156.756 63.4932C157.439 64.0767 158.213 64.4579 159.145 64.7374C159.989 65.0169 161.014 65.2019 162.042 65.2019C162.617 65.2019 163.27 65.1078 163.802 65.0195C164.344 64.9418 164.83 64.7996 165.314 64.6579C165.42 64.6266 165.527 64.5954 165.634 64.5649L165.645 64.5619L165.655 64.5585C166.22 64.3707 166.779 64.0926 167.299 63.8335L167.315 63.8254C167.742 63.6129 168.068 63.3503 168.345 63.0922L170.458 64.9995C170.039 65.4236 169.559 65.7955 168.976 66.1181L168.965 66.1243L168.954 66.1311C168.256 66.5657 167.498 66.9824 166.757 67.2285C165.97 67.49 165.104 67.7485 164.331 67.9198C163.474 68.0905 162.711 68.174 161.954 68.174C160.235 68.174 158.789 67.9177 157.433 67.4112C156.079 66.9052 154.9 66.1484 153.979 65.2303C153.049 64.304 152.294 63.2158 151.79 61.8776C151.281 60.5261 151.025 59.0857 151.025 57.4637C151.025 55.9296 151.282 54.4934 151.786 53.2366C152.294 51.9705 153.056 50.7932 153.979 49.8737C154.9 48.9554 156.08 48.1976 157.35 47.691C158.725 47.1774 160.17 46.8418 161.688 46.8418C163.32 46.8418 164.854 47.0986 166.208 47.6046C167.551 48.1061 168.637 48.8553 169.559 49.858C170.473 50.8512 171.147 52.102 171.572 53.6259C171.963 55.0287 172.07 56.6713 171.943 58.6409H154.866H154.307L154.369 59.1963ZM168.244 56.1101H168.797L168.741 55.5602C168.556 53.716 167.9 52.1552 166.608 51.16C165.342 50.0963 163.711 49.6374 161.776 49.6374C160.942 49.6374 160.089 49.7297 159.227 50.0159C158.371 50.3002 157.706 50.68 157.057 51.1423C156.369 51.6319 155.795 52.3048 155.328 53.0494C154.861 53.7939 154.481 54.6409 154.289 55.5012L154.154 56.1101H154.777H168.244Z" fill="#BA3BFC" stroke="#BA3BFC"/>
<path d="M179.641 50.5787V50.0787H179.141H176.363V47.2831H182.468L182.908 49.107L183.175 50.2161L183.809 49.2679C184.454 48.3051 185.333 47.6691 186.376 47.3495C187.48 47.0108 188.583 46.8418 189.773 46.8418C190.771 46.8418 191.69 47.0061 192.532 47.2559C193.267 47.5493 193.895 47.8276 194.454 48.2392L192.955 51.091C192.486 50.7997 192.046 50.5896 191.564 50.3837L191.535 50.3713L191.504 50.3626L191.489 50.3582C190.874 50.1831 190.197 49.9905 189.33 49.9905H189.319L189.307 49.991C187.313 50.0813 185.653 50.5348 184.547 51.6368C183.447 52.7327 182.894 54.3813 182.894 56.4928V64.437V64.937H183.394H186.172V67.7326H176.097V64.937H179.141H179.641V64.437V50.5787Z" fill="#BA3BFC" stroke="#BA3BFC"/>
<path d="M116.849 68.8121L111.763 70.3496L113.306 75.4175L118.393 73.88L116.849 68.8121Z" fill="#BA3BFC" stroke="#BA3BFC" stroke-miterlimit="10"/>
</g>
<defs>
<clipPath id="clip0">
<rect width="195" height="76" fill="white"/>
</clipPath>
</defs>
</svg>
